<mxfile host="app.diagrams.net" agent="Mozilla/5.0 (Windows NT 10.0; Win64; x64) AppleWebKit/537.36 (KHTML, like Gecko) Chrome/134.0.0.0 Safari/537.36" version="26.1.3">
  <diagram name="Página-1" id="HEzafT3hkhrXV9f0zlYD">
    <mxGraphModel grid="1" page="1" gridSize="10" guides="1" tooltips="1" connect="1" arrows="1" fold="1" pageScale="1" pageWidth="827" pageHeight="1169" math="0" shadow="0">
      <root>
        <mxCell id="0" />
        <mxCell id="1" parent="0" />
        <mxCell id="cIWyeqfJ36iZqnQGME48-1" value="CLOUD AWS" style="verticalAlign=top;align=left;spacingTop=8;spacingLeft=2;spacingRight=12;shape=cube;size=10;direction=south;fontStyle=4;html=1;whiteSpace=wrap;movable=1;resizable=1;rotatable=1;deletable=1;editable=1;locked=0;connectable=1;" vertex="1" parent="1">
          <mxGeometry x="-620" y="-800" width="1070" height="650" as="geometry" />
        </mxCell>
        <mxCell id="cIWyeqfJ36iZqnQGME48-2" value="LOAD BALANCER&amp;nbsp;" style="verticalAlign=top;align=left;spacingTop=8;spacingLeft=2;spacingRight=12;shape=cube;size=10;direction=south;fontStyle=4;html=1;whiteSpace=wrap;" vertex="1" parent="1">
          <mxGeometry x="197.5" y="-750" width="170" height="110" as="geometry" />
        </mxCell>
        <mxCell id="cIWyeqfJ36iZqnQGME48-3" value="kafka" style="html=1;dropTarget=0;whiteSpace=wrap;" vertex="1" parent="1">
          <mxGeometry x="217.5" y="-710" width="110" height="60" as="geometry" />
        </mxCell>
        <mxCell id="cIWyeqfJ36iZqnQGME48-4" value="" style="shape=module;jettyWidth=8;jettyHeight=4;" vertex="1" parent="cIWyeqfJ36iZqnQGME48-3">
          <mxGeometry x="1" width="20" height="20" relative="1" as="geometry">
            <mxPoint x="-27" y="7" as="offset" />
          </mxGeometry>
        </mxCell>
        <mxCell id="cIWyeqfJ36iZqnQGME48-5" value="SERVIDORES DE APLICAÇÃO" style="verticalAlign=top;align=left;spacingTop=8;spacingLeft=2;spacingRight=12;shape=cube;size=10;direction=south;fontStyle=4;html=1;whiteSpace=wrap;" vertex="1" parent="1">
          <mxGeometry x="-100" y="-570" width="490" height="120" as="geometry" />
        </mxCell>
        <mxCell id="cIWyeqfJ36iZqnQGME48-26" value="" style="edgeStyle=orthogonalEdgeStyle;rounded=0;orthogonalLoop=1;jettySize=auto;html=1;entryX=0.7;entryY=0.048;entryDx=0;entryDy=0;entryPerimeter=0;" edge="1" parent="1" source="cIWyeqfJ36iZqnQGME48-6" target="cIWyeqfJ36iZqnQGME48-27">
          <mxGeometry relative="1" as="geometry" />
        </mxCell>
        <mxCell id="cIWyeqfJ36iZqnQGME48-31" value="JDBC" style="edgeLabel;html=1;align=center;verticalAlign=middle;resizable=0;points=[];" connectable="0" vertex="1" parent="cIWyeqfJ36iZqnQGME48-26">
          <mxGeometry x="-0.0807" y="1" relative="1" as="geometry">
            <mxPoint as="offset" />
          </mxGeometry>
        </mxCell>
        <mxCell id="cIWyeqfJ36iZqnQGME48-6" value="backend: spring boot" style="html=1;dropTarget=0;whiteSpace=wrap;" vertex="1" parent="1">
          <mxGeometry x="-20" y="-530" width="125" height="70" as="geometry" />
        </mxCell>
        <mxCell id="cIWyeqfJ36iZqnQGME48-7" value="" style="shape=module;jettyWidth=8;jettyHeight=4;" vertex="1" parent="cIWyeqfJ36iZqnQGME48-6">
          <mxGeometry x="1" width="20" height="20" relative="1" as="geometry">
            <mxPoint x="-27" y="7" as="offset" />
          </mxGeometry>
        </mxCell>
        <mxCell id="cIWyeqfJ36iZqnQGME48-35" style="edgeStyle=orthogonalEdgeStyle;rounded=0;orthogonalLoop=1;jettySize=auto;html=1;entryX=1;entryY=0.5;entryDx=0;entryDy=0;" edge="1" parent="1" source="cIWyeqfJ36iZqnQGME48-8" target="cIWyeqfJ36iZqnQGME48-6">
          <mxGeometry relative="1" as="geometry" />
        </mxCell>
        <mxCell id="cIWyeqfJ36iZqnQGME48-8" value="frontend: react" style="html=1;dropTarget=0;whiteSpace=wrap;" vertex="1" parent="1">
          <mxGeometry x="220" y="-540" width="125" height="80" as="geometry" />
        </mxCell>
        <mxCell id="cIWyeqfJ36iZqnQGME48-9" value="" style="shape=module;jettyWidth=8;jettyHeight=4;" vertex="1" parent="cIWyeqfJ36iZqnQGME48-8">
          <mxGeometry x="1" width="20" height="20" relative="1" as="geometry">
            <mxPoint x="-27" y="7" as="offset" />
          </mxGeometry>
        </mxCell>
        <mxCell id="cIWyeqfJ36iZqnQGME48-10" value="BANCO DE DADOS" style="verticalAlign=top;align=left;spacingTop=8;spacingLeft=2;spacingRight=12;shape=cube;size=10;direction=south;fontStyle=4;html=1;whiteSpace=wrap;" vertex="1" parent="1">
          <mxGeometry x="-570" y="-350" width="540" height="120" as="geometry" />
        </mxCell>
        <mxCell id="cIWyeqfJ36iZqnQGME48-21" value="SERVIÇOS GERENCIADOS" style="verticalAlign=top;align=left;spacingTop=8;spacingLeft=2;spacingRight=12;shape=cube;size=10;direction=south;fontStyle=4;html=1;whiteSpace=wrap;" vertex="1" parent="1">
          <mxGeometry x="-10" y="-350" width="430" height="120" as="geometry" />
        </mxCell>
        <mxCell id="cIWyeqfJ36iZqnQGME48-22" value="AMAZON S3" style="html=1;dropTarget=0;whiteSpace=wrap;" vertex="1" parent="1">
          <mxGeometry x="82.5" y="-310" width="125" height="70" as="geometry" />
        </mxCell>
        <mxCell id="cIWyeqfJ36iZqnQGME48-23" value="" style="shape=module;jettyWidth=8;jettyHeight=4;" vertex="1" parent="cIWyeqfJ36iZqnQGME48-22">
          <mxGeometry x="1" width="20" height="20" relative="1" as="geometry">
            <mxPoint x="-27" y="7" as="offset" />
          </mxGeometry>
        </mxCell>
        <mxCell id="cIWyeqfJ36iZqnQGME48-24" value="AMAZON SNS" style="html=1;dropTarget=0;whiteSpace=wrap;" vertex="1" parent="1">
          <mxGeometry x="262.5" y="-315" width="125" height="70" as="geometry" />
        </mxCell>
        <mxCell id="cIWyeqfJ36iZqnQGME48-25" value="" style="shape=module;jettyWidth=8;jettyHeight=4;" vertex="1" parent="cIWyeqfJ36iZqnQGME48-24">
          <mxGeometry x="1" width="20" height="20" relative="1" as="geometry">
            <mxPoint x="-27" y="7" as="offset" />
          </mxGeometry>
        </mxCell>
        <mxCell id="cIWyeqfJ36iZqnQGME48-27" value="POSTGREESQL" style="shape=datastore;whiteSpace=wrap;html=1;" vertex="1" parent="1">
          <mxGeometry x="-540" y="-300" width="170" height="60" as="geometry" />
        </mxCell>
        <mxCell id="cIWyeqfJ36iZqnQGME48-28" value="POSTGREESQL" style="shape=datastore;whiteSpace=wrap;html=1;" vertex="1" parent="1">
          <mxGeometry x="-240" y="-310" width="170" height="60" as="geometry" />
        </mxCell>
        <mxCell id="cIWyeqfJ36iZqnQGME48-29" value="" style="endArrow=block;dashed=1;endFill=0;endSize=12;html=1;rounded=0;entryX=0;entryY=0.5;entryDx=0;entryDy=0;exitX=1;exitY=0.5;exitDx=0;exitDy=0;" edge="1" parent="1" source="cIWyeqfJ36iZqnQGME48-27" target="cIWyeqfJ36iZqnQGME48-28">
          <mxGeometry width="160" relative="1" as="geometry">
            <mxPoint x="-160" y="-320" as="sourcePoint" />
            <mxPoint y="-320" as="targetPoint" />
          </mxGeometry>
        </mxCell>
        <mxCell id="cIWyeqfJ36iZqnQGME48-30" value="replica" style="edgeLabel;html=1;align=center;verticalAlign=middle;resizable=0;points=[];" connectable="0" vertex="1" parent="cIWyeqfJ36iZqnQGME48-29">
          <mxGeometry x="0.0676" y="1" relative="1" as="geometry">
            <mxPoint as="offset" />
          </mxGeometry>
        </mxCell>
        <mxCell id="cIWyeqfJ36iZqnQGME48-32" style="edgeStyle=orthogonalEdgeStyle;rounded=0;orthogonalLoop=1;jettySize=auto;html=1;entryX=0;entryY=0.25;entryDx=0;entryDy=0;" edge="1" parent="1" source="cIWyeqfJ36iZqnQGME48-6" target="cIWyeqfJ36iZqnQGME48-22">
          <mxGeometry relative="1" as="geometry" />
        </mxCell>
        <mxCell id="cIWyeqfJ36iZqnQGME48-33" value="API AWS-SDK" style="edgeLabel;html=1;align=center;verticalAlign=middle;resizable=0;points=[];" connectable="0" vertex="1" parent="cIWyeqfJ36iZqnQGME48-32">
          <mxGeometry x="-0.6239" y="1" relative="1" as="geometry">
            <mxPoint as="offset" />
          </mxGeometry>
        </mxCell>
        <mxCell id="cIWyeqfJ36iZqnQGME48-36" style="edgeStyle=orthogonalEdgeStyle;rounded=0;orthogonalLoop=1;jettySize=auto;html=1;entryX=0.586;entryY=0.071;entryDx=0;entryDy=0;entryPerimeter=0;" edge="1" parent="1" source="cIWyeqfJ36iZqnQGME48-6" target="cIWyeqfJ36iZqnQGME48-24">
          <mxGeometry relative="1" as="geometry">
            <Array as="points">
              <mxPoint x="100" y="-420" />
              <mxPoint x="333" y="-420" />
            </Array>
          </mxGeometry>
        </mxCell>
        <mxCell id="cIWyeqfJ36iZqnQGME48-37" value="NOTIFICAÇÃO" style="edgeLabel;html=1;align=center;verticalAlign=middle;resizable=0;points=[];" connectable="0" vertex="1" parent="cIWyeqfJ36iZqnQGME48-36">
          <mxGeometry x="0.2877" y="-3" relative="1" as="geometry">
            <mxPoint as="offset" />
          </mxGeometry>
        </mxCell>
        <mxCell id="cIWyeqfJ36iZqnQGME48-38" value="DISPOSITIVOS CLIENTES" style="verticalAlign=top;align=left;spacingTop=8;spacingLeft=2;spacingRight=12;shape=cube;size=10;direction=south;fontStyle=4;html=1;whiteSpace=wrap;" vertex="1" parent="1">
          <mxGeometry x="50" y="-1070" width="390" height="120" as="geometry" />
        </mxCell>
        <mxCell id="cIWyeqfJ36iZqnQGME48-46" style="edgeStyle=orthogonalEdgeStyle;rounded=0;orthogonalLoop=1;jettySize=auto;html=1;entryX=0;entryY=0.397;entryDx=0;entryDy=0;entryPerimeter=0;" edge="1" parent="1" source="cIWyeqfJ36iZqnQGME48-38" target="cIWyeqfJ36iZqnQGME48-2">
          <mxGeometry relative="1" as="geometry" />
        </mxCell>
        <mxCell id="cIWyeqfJ36iZqnQGME48-47" value="https" style="edgeLabel;html=1;align=center;verticalAlign=middle;resizable=0;points=[];" connectable="0" vertex="1" parent="cIWyeqfJ36iZqnQGME48-46">
          <mxGeometry x="-0.1494" y="3" relative="1" as="geometry">
            <mxPoint as="offset" />
          </mxGeometry>
        </mxCell>
        <mxCell id="cIWyeqfJ36iZqnQGME48-48" style="edgeStyle=orthogonalEdgeStyle;rounded=0;orthogonalLoop=1;jettySize=auto;html=1;entryX=0.032;entryY=0.267;entryDx=0;entryDy=0;entryPerimeter=0;" edge="1" parent="1" source="cIWyeqfJ36iZqnQGME48-3" target="cIWyeqfJ36iZqnQGME48-5">
          <mxGeometry relative="1" as="geometry" />
        </mxCell>
        <mxCell id="cIWyeqfJ36iZqnQGME48-49" value="http" style="edgeLabel;html=1;align=center;verticalAlign=middle;resizable=0;points=[];" connectable="0" vertex="1" parent="cIWyeqfJ36iZqnQGME48-48">
          <mxGeometry x="0.0428" y="-2" relative="1" as="geometry">
            <mxPoint x="1" as="offset" />
          </mxGeometry>
        </mxCell>
        <mxCell id="cIWyeqfJ36iZqnQGME48-50" value="navegador web" style="shape=note2;boundedLbl=1;whiteSpace=wrap;html=1;size=25;verticalAlign=top;align=center;" vertex="1" parent="1">
          <mxGeometry x="105" y="-1030" width="120" height="60" as="geometry" />
        </mxCell>
        <mxCell id="cIWyeqfJ36iZqnQGME48-51" value="app mobile" style="shape=note2;boundedLbl=1;whiteSpace=wrap;html=1;size=25;verticalAlign=top;align=center;" vertex="1" parent="1">
          <mxGeometry x="265" y="-1030" width="120" height="60" as="geometry" />
        </mxCell>
      </root>
    </mxGraphModel>
  </diagram>
</mxfile>
